<svg id="Слой_1" data-name="Слой 1" xmlns="http://www.w3.org/2000/svg" viewBox="0 0 60 42.5"><defs><style>.cls-1{fill:#f8d32c;}.cls-2{fill:none;}</style></defs><title>anchor circle</title><polygon class="cls-1" points="57 30 57 30 57 30 57 30 57 30"/><path class="cls-1" d="M31.59.06A2.88,2.88,0,0,0,31,0a3,3,0,0,0,0,6V6A24,24,0,0,1,54,30a3,3,0,0,0,6,0A30,30,0,0,0,31.59.06Z"/><path class="cls-1" d="M20.93,36.88h1.14c.76,3.61,4.8,5.62,8.53,5.62s7.76-2,8.53-5.62h1.13a.43.43,0,0,0,.3-.73L38.21,33.8a.42.42,0,0,0-.6,0l-2.35,2.35a.43.43,0,0,0,.29.73h1.24c-.72,1.9-3,3-5.07,3.3V33.5h1.83a.42.42,0,0,0,.42-.42V31.67a.42.42,0,0,0-.42-.42H31.72v-.19a3.38,3.38,0,1,0-2.25,0v.19H27.64a.42.42,0,0,0-.42.42v1.41a.42.42,0,0,0,.42.42h1.83v6.68c-2.07-.26-4.35-1.4-5.06-3.3h1.23a.43.43,0,0,0,.3-.73L23.58,33.8a.41.41,0,0,0-.59,0l-2.36,2.35A.43.43,0,0,0,20.93,36.88ZM30.6,26.75a1.13,1.13,0,1,1-1.13,1.13A1.13,1.13,0,0,1,30.6,26.75Z"/><rect class="cls-2" y="30" width="60" height="2"/></svg>