<svg id="Слой_1" data-name="Слой 1" xmlns="http://www.w3.org/2000/svg" viewBox="0 0 60 60"><defs><style>.cls-1{fill:#17bb9c;}.cls-2{fill:#1abc9c;}</style></defs><title>gem circle</title><path class="cls-1" d="M30,0A30,30,0,1,0,60,30,30,30,0,0,0,30,0Zm0,54A24,24,0,1,1,54,30,24,24,0,0,1,30,54Z"/><path class="cls-2" d="M35.84,22.51H24.16a.42.42,0,0,0-.34.18L20.5,27.58a.41.41,0,0,0,0,.47l9.16,11.32a.41.41,0,0,0,.62,0l9.16-11.32a.41.41,0,0,0,0-.47l-3.32-4.89A.42.42,0,0,0,35.84,22.51Zm-.64,1.6,2.1,3.18H35l-1.71-3.18Zm-6.71,0h3l1.72,3.18H26.78Zm-3.69,0h1.88L25,27.29H22.7Zm-1.43,4.78h1.71l2.26,5.31Zm3.42,0h6.42L30,37l-3.21-8.08Zm5.87,5.31,2.26-5.31h1.71Z"/></svg>