<svg id="Layer_1" data-name="Layer 1" xmlns="http://www.w3.org/2000/svg" viewBox="0 0 105.53 105.57"><defs><style>.cls-1{fill:#3e98c2;}</style></defs><title>link_blue</title><path class="cls-1" d="M97.63,70.23,79.38,52a16.86,16.86,0,0,0-22.64-1.09l-5.11-5.1a16.85,16.85,0,0,0-1.09-22.63L32.31,4.92a16.84,16.84,0,0,0-23.79,0L2,11.47A16.84,16.84,0,0,0,2,35.29H2L20.16,53.58a16.86,16.86,0,0,0,22.63,1.09l5.1,5.1A16.86,16.86,0,0,0,49,82.4l18.24,18.24a16.85,16.85,0,0,0,23.83,0h0l6.55-6.55a16.85,16.85,0,0,0,.07-23.82ZM24.15,43.82,10.51,30.19a9.82,9.82,0,0,1-.06-13.89l.06-.06,2.61-2.61A9.82,9.82,0,0,1,27,13.57l.06.06L40.71,27.27a9.8,9.8,0,0,1,2.4,10l-8.41-8.4a4.08,4.08,0,0,0-5.78,0L25.87,32a4.09,4.09,0,0,0,0,5.79l8.44,8.44A9.83,9.83,0,0,1,24.15,43.82Zm61,47.07a9.82,9.82,0,0,1-13.89,0l0,0L57.61,77.24a9.83,9.83,0,0,1-2.35-10.15l9.6,9.6a4.08,4.08,0,0,0,5.78,0l3.08-3.07a4.11,4.11,0,0,0,0-5.79l-9.56-9.55a9.8,9.8,0,0,1,10,2.4L87.78,74.33a9.81,9.81,0,0,1,0,13.88l0,.06Z" transform="translate(2.96)"/></svg>