<svg id="Слой_1" data-name="Слой 1" xmlns="http://www.w3.org/2000/svg" viewBox="0 0 60 60"><defs><style>.cls-1{fill:#f75e40;}.cls-2{fill:#f85f40;}</style></defs><title>star circle</title><path class="cls-1" d="M31.59.06A2.88,2.88,0,0,0,31,0a3,3,0,0,0,0,6V6A24,24,0,1,1,6,30a3,3,0,0,0-6,0A30,30,0,1,0,31.59.06Z"/><path class="cls-2" d="M28.91,22l-2.17,4.4-4.85.7a1.07,1.07,0,0,0-.59,1.82l3.51,3.41L24,37.18a1.06,1.06,0,0,0,1.54,1.11L29.86,36l4.34,2.28a1.06,1.06,0,0,0,1.54-1.11l-.83-4.84,3.51-3.41a1.07,1.07,0,0,0-.59-1.82L33,26.41,30.82,22a1.07,1.07,0,0,0-1.91,0Z"/></svg>