<svg id="Слой_1" data-name="Слой 1" xmlns="http://www.w3.org/2000/svg" viewBox="0 0 60 60"><defs><style>.cls-1{fill:#7e8b8c;}.cls-2{fill:#7f8c8d;}.cls-3{fill:none;}</style></defs><title>star-half circle</title><path class="cls-1" d="M60,30A30,30,0,0,0,31.59.06,2.88,2.88,0,0,0,31,0a3,3,0,0,0,0,6V6A24,24,0,0,1,31,54v0a3,3,0,0,0,0,6,2.88,2.88,0,0,0,.59-.06A30,30,0,0,0,60,30Z"/><path class="cls-2" d="M36,26.69,31.12,26,29,21.59A1.07,1.07,0,0,0,28,21a1,1,0,0,0-.95.59L24.88,26l-4.87.7a1.06,1.06,0,0,0-.58,1.82l3.51,3.42-.83,4.82A1.06,1.06,0,0,0,23.16,38a1,1,0,0,0,.49-.13L28,35.6l4.35,2.28a1.07,1.07,0,0,0,.49.12,1.06,1.06,0,0,0,1-1.24l-.83-4.83,3.52-3.42A1.07,1.07,0,0,0,36,26.69Zm-4.05,4.09-.6.59.15.83L32.13,36l-3.39-1.78L28,33.79V23.26l1.69,3.43.38.75.83.12,3.79.55Z"/><rect class="cls-3" y="28" width="60" height="4"/></svg>