<svg id="Слой_1" data-name="Слой 1" xmlns="http://www.w3.org/2000/svg" viewBox="0 0 128.85 104.65"><defs><style>.cls-1{fill:#3e98c2;}</style></defs><title>twitter_blue</title><path class="cls-1" d="M312.51,225.43c.08,1.14.08,2.29.08,3.43,0,34.92-26.57,75.14-75.14,75.14a74.63,74.63,0,0,1-40.55-11.85,55.74,55.74,0,0,0,6.38.32,52.89,52.89,0,0,0,32.78-11.28,26.46,26.46,0,0,1-24.69-18.31,34.05,34.05,0,0,0,5,.4,28,28,0,0,0,6.95-.89,26.43,26.43,0,0,1-21.18-25.92v-.33a26.62,26.62,0,0,0,11.94,3.35,26.47,26.47,0,0,1-8.18-35.32,75.07,75.07,0,0,0,54.45,27.64,29.73,29.73,0,0,1-.65-6.05,26.43,26.43,0,0,1,45.7-18.07,52,52,0,0,0,16.76-6.38,26.32,26.32,0,0,1-11.61,14.55,52.94,52.94,0,0,0,15.21-4.08,56.83,56.83,0,0,1-13.24,13.65Z" transform="translate(-196.9 -199.35)"/></svg>